<svg width="41" height="41" viewBox="0 0 41 41" fill="none" xmlns="http://www.w3.org/2000/svg">
<path d="M8.42399 23.0252L7.94663 22.1465C7.62453 22.3215 7.42399 22.6587 7.42399 23.0252H8.42399ZM16.6546 18.5539H17.6546C17.6546 18.2013 17.4689 17.8747 17.1658 17.6944C16.8627 17.5142 16.4871 17.5068 16.1772 17.6752L16.6546 18.5539ZM16.6546 23.0252H15.6546C15.6546 23.3762 15.8387 23.7016 16.1396 23.8824C16.4405 24.0632 16.8141 24.073 17.1241 23.9082L16.6546 23.0252ZM25.0641 18.5539H26.0641C26.0641 18.2029 25.8801 17.8775 25.5792 17.6967C25.2783 17.5159 24.9046 17.5061 24.5947 17.6709L25.0641 18.5539ZM25.0641 23.0252H24.0641C24.0641 23.3784 24.2504 23.7054 24.5543 23.8855C24.8581 24.0655 25.2344 24.072 25.5442 23.9024L25.0641 23.0252ZM33.2351 18.5539H34.2351C34.2351 18.2007 34.0488 17.8737 33.745 17.6936C33.4412 17.5136 33.0649 17.5071 32.7551 17.6766L33.2351 18.5539ZM5.85938 34.8508C5.30709 34.8508 4.85938 35.2985 4.85938 35.8508C4.85938 36.4031 5.30709 36.8508 5.85938 36.8508V34.8508ZM35.8594 36.8508C36.4117 36.8508 36.8594 36.4031 36.8594 35.8508C36.8594 35.2985 36.4117 34.8508 35.8594 34.8508V36.8508ZM27.9866 5.85083V4.85083C27.4559 4.85083 27.0177 5.26535 26.9882 5.7952L27.9866 5.85083ZM31.3266 5.85083L32.3254 5.80196C32.2993 5.26931 31.8599 4.85083 31.3266 4.85083V5.85083ZM12.5989 27.2612V26.2612C12.0467 26.2612 11.5989 26.7089 11.5989 27.2612H12.5989ZM17.8474 27.2612H18.8474C18.8474 26.7089 18.3997 26.2612 17.8474 26.2612V27.2612ZM21.7699 25.9669C21.2176 25.9669 20.7699 26.4146 20.7699 26.9669C20.7699 27.5191 21.2176 27.9669 21.7699 27.9669V25.9669ZM24.1556 27.9669C24.7079 27.9669 25.1556 27.5191 25.1556 26.9669C25.1556 26.4146 24.7079 25.9669 24.1556 25.9669V27.9669ZM21.7699 30.9088C21.2176 30.9088 20.7699 31.3566 20.7699 31.9088C20.7699 32.4611 21.2176 32.9088 21.7699 32.9088V30.9088ZM24.1556 32.9088C24.7079 32.9088 25.1556 32.4611 25.1556 31.9088C25.1556 31.3566 24.7079 30.9088 24.1556 30.9088V32.9088ZM27.5552 25.9669C27.0029 25.9669 26.5552 26.4146 26.5552 26.9669C26.5552 27.5191 27.0029 27.9669 27.5552 27.9669V25.9669ZM29.9409 27.9669C30.4932 27.9669 30.9409 27.5191 30.9409 26.9669C30.9409 26.4146 30.4932 25.9669 29.9409 25.9669V27.9669ZM27.5552 30.9088C27.0029 30.9088 26.5552 31.3566 26.5552 31.9088C26.5552 32.4611 27.0029 32.9088 27.5552 32.9088V30.9088ZM29.9409 32.9088C30.4932 32.9088 30.9409 32.4611 30.9409 31.9088C30.9409 31.3566 30.4932 30.9088 29.9409 30.9088V32.9088ZM9.42399 35.8508V23.0252H7.42399V35.8508H9.42399ZM8.90135 23.9039L17.132 19.4326L16.1772 17.6752L7.94663 22.1465L8.90135 23.9039ZM15.6546 18.5539V23.0252H17.6546V18.5539H15.6546ZM17.1241 23.9082L25.5336 19.4368L24.5947 17.6709L16.1851 22.1423L17.1241 23.9082ZM24.0641 18.5539V23.0252H26.0641V18.5539H24.0641ZM25.5442 23.9024L33.7152 19.4311L32.7551 17.6766L24.5841 22.148L25.5442 23.9024ZM32.2351 18.5539V35.8508H34.2351V18.5539H32.2351ZM5.85938 36.8508H8.42399V34.8508H5.85938V36.8508ZM8.42399 36.8508H33.2351V34.8508H8.42399V36.8508ZM33.2351 36.8508H35.8594V34.8508H33.2351V36.8508ZM28.0904 21.963L28.9851 5.90646L26.9882 5.7952L26.0935 21.8517L28.0904 21.963ZM27.9866 6.85083H31.3266V4.85083H27.9866V6.85083ZM30.3278 5.8997L30.9838 19.3088L32.9814 19.211L32.3254 5.80196L30.3278 5.8997ZM27.8618 11.7743H31.5V9.77435H27.8618V11.7743ZM13.5989 35.8508V27.2612H11.5989V35.8508H13.5989ZM12.5989 28.2612H17.8474V26.2612H12.5989V28.2612ZM16.8474 27.2612V35.8508H18.8474V27.2612H16.8474ZM21.7699 27.9669H24.1556V25.9669H21.7699V27.9669ZM21.7699 32.9088H24.1556V30.9088H21.7699V32.9088ZM27.5552 27.9669H29.9409V25.9669H27.5552V27.9669ZM27.5552 32.9088H29.9409V30.9088H27.5552V32.9088Z" fill="#185ADB"/>
</svg>
