<svg width="161" height="65" viewBox="0 0 161 65" fill="none" xmlns="http://www.w3.org/2000/svg">
<path fill-rule="evenodd" clip-rule="evenodd" d="M20.1323 30.6153C20.6497 30.3343 21.2127 30.1265 21.8074 30.0058L21.8074 22.4941C19.0423 21.9328 16.9611 19.4882 16.9611 16.5575C16.9611 15.6507 17.1604 14.7905 17.5175 14.0181L10.6239 10.0382C10.215 10.5069 9.73508 10.9121 9.20092 11.237L20.1323 30.6153ZM26.6912 31.1242C28.1411 32.231 29.0766 33.9774 29.0766 35.9423C29.0766 39.2879 26.3645 42 23.0189 42C19.6734 42 16.9612 39.2879 16.9612 35.9423C16.9612 34.0012 17.8742 32.2734 19.2941 31.1648L8.30531 11.6847C7.61026 11.9626 6.85169 12.1154 6.05741 12.1154C2.71184 12.1154 -0.000287067 9.4033 -0.000286775 6.05773C-0.000286482 2.71215 2.71184 2.67299e-05 6.05741 2.70224e-05C8.95398 2.72756e-05 11.3757 2.03301 11.9736 4.74995L34.0642 4.74995C34.6621 2.03302 37.0838 2.59201e-05 39.9804 2.61733e-05C43.326 2.64658e-05 46.0381 2.71215 46.0381 6.05773C46.0381 9.40331 43.326 12.1154 39.9804 12.1154C39.0848 12.1154 38.2347 11.9211 37.4698 11.5723L26.6912 31.1242ZM25.8471 30.5839L36.5973 11.0835C36.0847 10.7377 35.6278 10.3155 35.2429 9.83332L28.4044 13.7815C28.834 14.6131 29.0765 15.557 29.0765 16.5575C29.0765 19.7674 26.58 22.3941 23.4228 22.602L23.4228 29.8978C24.294 29.9552 25.115 30.1968 25.8471 30.5839ZM33.9304 5.74995L12.1074 5.74995C12.1125 5.8519 12.1151 5.95451 12.1151 6.05773C12.1151 7.0002 11.8999 7.89239 11.5159 8.68785L18.386 12.6543C19.4973 11.3368 21.1603 10.4998 23.0188 10.4998C24.7809 10.4998 26.3673 11.2522 27.4743 12.4533L34.4123 8.44757C34.0972 7.71434 33.9227 6.90642 33.9227 6.05773C33.9227 5.95451 33.9253 5.8519 33.9304 5.74995Z" fill="url(#paint0_radial_21_1585)"/>
<path d="M68.9046 41.4278H62.267C62.1144 41.4278 62.0381 41.3324 62.0381 41.1417L62.1525 0.944142C62.1525 0.753406 62.2288 0.658038 62.3814 0.658038H68.9618C69.1144 0.658038 69.1907 0.753406 69.1907 0.944142V14.8202L78.3746 0.886921C78.5272 0.734332 78.6702 0.658038 78.8038 0.658038H85.5272C85.6988 0.658038 85.737 0.734332 85.6416 0.886921L75.5136 17.0518L86.8719 41.1989C86.9672 41.3515 86.8719 41.4278 86.5858 41.4278H79.4332C79.2424 41.4278 79.128 41.3515 79.0899 41.1989L71.1648 23.9755L69.1335 27.1798V41.1417C69.1335 41.3324 69.0572 41.4278 68.9046 41.4278Z" fill="#EFEFEF"/>
<path d="M99.0313 42C96.9141 42 95.0068 41.4755 93.3092 40.4264C91.5926 39.3774 90.2097 37.9659 89.1607 36.1921C88.1307 34.4183 87.6157 32.4346 87.6157 30.2411V11.673C87.6157 9.53679 88.1403 7.59128 89.1893 5.83651C90.2193 4.06267 91.6021 2.65123 93.3378 1.60218C95.0735 0.53406 96.9713 0 99.0313 0C101.187 0 103.132 0.514986 104.868 1.54496C106.603 2.59401 107.977 3.99591 108.988 5.75068C110.018 7.50545 110.533 9.47956 110.533 11.673V14.3624C110.533 14.515 110.437 14.5913 110.247 14.5913H103.666C103.514 14.5913 103.437 14.515 103.437 14.3624V12.1308C103.437 10.6431 103.018 9.41281 102.178 8.44005C101.339 7.4673 100.29 6.98093 99.0313 6.98093C97.9059 6.98093 96.9046 7.44823 96.0272 8.38283C95.1498 9.31744 94.7111 10.4142 94.7111 11.673V30.2411C94.7111 31.5191 95.1403 32.6253 95.9986 33.5599C96.8569 34.4755 97.8678 34.9332 99.0313 34.9332C100.29 34.9332 101.339 34.485 102.178 33.5886C103.018 32.673 103.437 31.5572 103.437 30.2411V27.3515H99.346C99.1362 27.3515 99.0313 27.2561 99.0313 27.0654V20.5136C99.0313 20.3229 99.1362 20.2275 99.346 20.2275H110.304C110.456 20.2275 110.533 20.3229 110.533 20.5136V30.2411C110.533 32.4346 110.018 34.4183 108.988 36.1921C107.939 37.9659 106.556 39.3774 104.839 40.4264C103.123 41.4755 101.187 42 99.0313 42Z" fill="#EFEFEF"/>
<path d="M125.41 42C123.293 42 121.385 41.4755 119.688 40.4264C117.971 39.3774 116.588 37.9659 115.539 36.1921C114.509 34.4183 113.994 32.4346 113.994 30.2411V11.673C113.994 9.53679 114.519 7.59128 115.568 5.83651C116.598 4.06267 117.981 2.65123 119.717 1.60218C121.452 0.53406 123.35 0 125.41 0C127.565 0 129.511 0.514986 131.247 1.54496C132.982 2.59401 134.356 3.99591 135.366 5.75068C136.396 7.50545 136.911 9.47956 136.911 11.673V14.3624C136.911 14.515 136.816 14.5913 136.625 14.5913H130.045C129.892 14.5913 129.816 14.515 129.816 14.3624V12.1308C129.816 10.6431 129.396 9.41281 128.557 8.44005C127.718 7.4673 126.669 6.98093 125.41 6.98093C124.285 6.98093 123.283 7.44823 122.406 8.38283C121.529 9.31744 121.09 10.4142 121.09 11.673V30.2411C121.09 31.5191 121.519 32.6253 122.377 33.5599C123.236 34.4755 124.247 34.9332 125.41 34.9332C126.669 34.9332 127.718 34.485 128.557 33.5886C129.396 32.673 129.816 31.5572 129.816 30.2411V27.3515H125.725C125.515 27.3515 125.41 27.2561 125.41 27.0654V20.5136C125.41 20.3229 125.515 20.2275 125.725 20.2275H136.683C136.835 20.2275 136.911 20.3229 136.911 20.5136V30.2411C136.911 32.4346 136.396 34.4183 135.366 36.1921C134.317 37.9659 132.935 39.3774 131.218 40.4264C129.501 41.4755 127.565 42 125.41 42Z" fill="#EFEFEF"/>
<path d="M160.229 41.4278H141.289C141.136 41.4278 141.06 41.3324 141.06 41.1417L141.117 0.944142C141.117 0.753406 141.212 0.658038 141.403 0.658038H147.926C148.117 0.658038 148.212 0.753406 148.212 0.944142L148.155 34.218H160.229C160.42 34.218 160.515 34.3134 160.515 34.5041V41.1417C160.515 41.3324 160.42 41.4278 160.229 41.4278Z" fill="#EFEFEF"/>
<path d="M70.1517 52.2829C70.1753 51.6757 69.9949 51.2 69.6103 50.8559C69.229 50.5118 68.6943 50.3398 68.0061 50.3398C67.5271 50.3398 67.0885 50.4241 66.6904 50.5928C66.2957 50.7581 65.9702 50.9858 65.7138 51.2759C65.4608 51.5661 65.3039 51.8967 65.2432 52.2678C65.1993 52.541 65.2195 52.7805 65.3039 52.9863C65.3882 53.1887 65.5181 53.3642 65.6935 53.5126C65.869 53.661 66.0697 53.7876 66.2957 53.8921C66.5251 53.9967 66.7579 54.0844 66.9941 54.1553L68.0415 54.469C68.3519 54.5601 68.6606 54.6765 68.9676 54.8182C69.2746 54.9599 69.5479 55.137 69.7874 55.3495C70.0269 55.5621 70.204 55.8235 70.3187 56.1339C70.4368 56.4442 70.4604 56.8153 70.3896 57.2472C70.2951 57.8072 70.0691 58.3081 69.7115 58.7501C69.3572 59.1887 68.8917 59.5361 68.3148 59.7925C67.7379 60.0489 67.0716 60.1771 66.316 60.1771C65.6109 60.1771 65.0171 60.0607 64.5347 59.8279C64.0523 59.5918 63.6964 59.2662 63.467 58.8513C63.2376 58.4363 63.1499 57.9556 63.2038 57.4091H64.1754C64.1383 57.8173 64.2142 58.1631 64.4031 58.4465C64.5954 58.7298 64.8687 58.9458 65.2229 59.0942C65.5805 59.2393 65.9921 59.3118 66.4577 59.3118C66.9738 59.3118 67.4478 59.2258 67.8796 59.0537C68.3114 58.8783 68.6673 58.6354 68.9474 58.325C69.2307 58.0113 69.4062 57.6469 69.4736 57.232C69.5344 56.8811 69.4922 56.5859 69.3471 56.3464C69.2054 56.1069 68.9845 55.9062 68.6842 55.7442C68.3873 55.5789 68.0331 55.4339 67.6215 55.309L66.4374 54.9447C65.6649 54.7085 65.0897 54.3762 64.7118 53.9478C64.3374 53.5194 64.2041 52.9728 64.3121 52.3082C64.4065 51.7482 64.6376 51.2574 65.0053 50.8357C65.3764 50.4106 65.8369 50.08 66.3868 49.8438C66.9367 49.6077 67.5305 49.4896 68.1681 49.4896C68.8124 49.4896 69.3606 49.6094 69.8127 49.8489C70.2681 50.0884 70.6055 50.419 70.8248 50.8407C71.0474 51.2591 71.1301 51.7398 71.0727 52.2829H70.1517ZM72.0291 60L73.3246 52.2273H74.2304L72.9349 60H72.0291ZM74.1039 50.8762C73.915 50.8762 73.7547 50.8121 73.6231 50.6839C73.4949 50.5557 73.4325 50.4005 73.4359 50.2183C73.4426 50.0463 73.5118 49.8978 73.6434 49.773C73.7783 49.6448 73.9369 49.5807 74.1191 49.5807C74.308 49.5807 74.4682 49.6465 74.5998 49.7781C74.7314 49.9062 74.7938 50.0614 74.787 50.2436C74.7836 50.4157 74.7145 50.5641 74.5795 50.6889C74.4446 50.8137 74.286 50.8762 74.1039 50.8762ZM77.9384 49.6364L76.2178 60H75.3171L77.0376 49.6364H77.9384ZM78.6114 60L79.9068 52.2273H80.8127L79.5172 60H78.6114ZM80.6861 50.8762C80.4972 50.8762 80.337 50.8121 80.2054 50.6839C80.0772 50.5557 80.0148 50.4005 80.0182 50.2183C80.0249 50.0463 80.0941 49.8978 80.2257 49.773C80.3606 49.6448 80.5192 49.5807 80.7013 49.5807C80.8902 49.5807 81.0505 49.6465 81.1821 49.7781C81.3136 49.9062 81.376 50.0614 81.3693 50.2436C81.3659 50.4157 81.2968 50.5641 81.1618 50.6889C81.0269 50.8137 80.8683 50.8762 80.6861 50.8762ZM84.9153 60.1619C84.2136 60.1619 83.6351 59.9882 83.1796 59.6407C82.7242 59.2932 82.4054 58.8176 82.2232 58.2137C82.0444 57.6064 82.0191 56.9182 82.1473 56.1491C82.2755 55.3664 82.5336 54.6731 82.9216 54.0692C83.3095 53.462 83.7886 52.9863 84.3587 52.6422C84.9322 52.2947 85.558 52.121 86.2361 52.121C86.759 52.121 87.2144 52.2222 87.6024 52.4246C87.9904 52.6237 88.2906 52.9054 88.5032 53.2697C88.7157 53.6307 88.8169 54.0524 88.8068 54.5348H87.8959C87.8723 54.0861 87.7087 53.7083 87.4051 53.4013C87.1048 53.0943 86.6797 52.9408 86.1298 52.9408C85.6272 52.9408 85.1616 53.0757 84.7332 53.3456C84.3047 53.6121 83.9421 53.9849 83.6452 54.464C83.3517 54.9396 83.1543 55.4912 83.0531 56.1187C82.9452 56.7496 82.9553 57.3079 83.0835 57.7937C83.2117 58.2761 83.4411 58.6539 83.7717 58.9272C84.1057 59.2005 84.5274 59.3371 85.0368 59.3371C85.3843 59.3371 85.7115 59.273 86.0185 59.1448C86.3255 59.0132 86.5971 58.8277 86.8332 58.5882C87.0694 58.3453 87.2499 58.0602 87.3747 57.733H88.2856C88.1337 58.2053 87.8942 58.6236 87.567 58.9879C87.2431 59.3523 86.8552 59.639 86.4031 59.8482C85.951 60.0574 85.4551 60.1619 84.9153 60.1619ZM91.9822 60.1771C91.5132 60.1771 91.1 60.086 90.7424 59.9039C90.3848 59.7183 90.1183 59.4518 89.9428 59.1043C89.7708 58.7535 89.7235 58.3284 89.8011 57.8291C89.8686 57.4445 89.9968 57.1206 90.1857 56.8575C90.378 56.5944 90.6209 56.3785 90.9144 56.2098C91.2079 56.0377 91.5453 55.9028 91.9265 55.805C92.3077 55.7071 92.7227 55.6329 93.1713 55.5823C93.6099 55.5283 93.9844 55.4811 94.2947 55.4406C94.6051 55.4001 94.8463 55.336 95.0184 55.2483C95.1904 55.1606 95.2933 55.0189 95.3271 54.8232L95.3574 54.6411C95.4451 54.1114 95.3642 53.6948 95.1145 53.3912C94.8649 53.0842 94.4466 52.9307 93.8596 52.9307C93.2995 52.9307 92.8137 53.0555 92.4022 53.3051C91.994 53.5514 91.6903 53.8398 91.4913 54.1705L90.6918 53.8618C90.9347 53.4367 91.2332 53.0977 91.5874 52.8446C91.9417 52.5882 92.3212 52.4044 92.726 52.2931C93.1309 52.1784 93.5306 52.121 93.9253 52.121C94.2222 52.121 94.5241 52.1598 94.8311 52.2374C95.1381 52.315 95.4131 52.4499 95.656 52.6422C95.9023 52.8311 96.0827 53.096 96.1974 53.4367C96.3155 53.7741 96.3324 54.2025 96.248 54.722L95.3675 60H94.4668L94.6743 58.7703H94.6186C94.4769 58.9997 94.2813 59.2224 94.0316 59.4383C93.7853 59.6542 93.4901 59.8313 93.146 59.9696C92.8019 60.108 92.414 60.1771 91.9822 60.1771ZM92.2099 59.3523C92.6889 59.3523 93.1224 59.246 93.5104 59.0335C93.9017 58.8209 94.2222 58.5392 94.4719 58.1884C94.7249 57.8342 94.8868 57.4445 94.9577 57.0194L95.1449 55.896C95.0707 55.9601 94.9492 56.0175 94.7805 56.0681C94.6152 56.1187 94.428 56.1642 94.2188 56.2047C94.0131 56.2418 93.8056 56.2739 93.5964 56.3009C93.3906 56.3279 93.2085 56.3515 93.0499 56.3717C92.6012 56.4257 92.2099 56.51 91.8759 56.6247C91.5453 56.7394 91.2805 56.898 91.0814 57.1004C90.8824 57.2994 90.7575 57.5558 90.7069 57.8696C90.6294 58.3419 90.7322 58.7079 91.0156 58.9677C91.3024 59.2241 91.7005 59.3523 92.2099 59.3523ZM102.121 52.2273L101.994 53.0116H98.2798L98.4114 52.2273H102.121ZM99.8738 50.3651H100.78L99.5145 57.9708C99.4605 58.2947 99.474 58.5494 99.555 58.7349C99.636 58.9171 99.7608 59.047 99.9295 59.1246C100.098 59.1988 100.284 59.2359 100.486 59.2359C100.604 59.2359 100.705 59.2291 100.79 59.2156C100.877 59.1988 100.955 59.1819 101.023 59.165L101.088 59.9798C100.99 60.0135 100.874 60.0439 100.739 60.0708C100.604 60.1012 100.442 60.1164 100.253 60.1164C99.9227 60.1164 99.6174 60.0439 99.3374 59.8988C99.0574 59.7537 98.8449 59.5378 98.6998 59.2511C98.5547 58.9643 98.5159 58.6084 98.5834 58.1833L99.8738 50.3651ZM105.91 60.1619C105.184 60.1619 104.585 59.9933 104.113 59.6559C103.641 59.3152 103.31 58.8445 103.121 58.2441C102.932 57.6402 102.904 56.9452 103.035 56.1592C103.167 55.3765 103.427 54.6816 103.815 54.0743C104.203 53.4637 104.682 52.9863 105.252 52.6422C105.822 52.2947 106.441 52.121 107.109 52.121C107.531 52.121 107.925 52.1986 108.293 52.3538C108.661 52.5056 108.973 52.7401 109.229 53.0572C109.489 53.3709 109.669 53.7673 109.771 54.2464C109.872 54.722 109.868 55.2854 109.76 55.9365L109.69 56.3818H103.617L103.744 55.5874H108.9C108.985 55.0881 108.961 54.6394 108.829 54.2413C108.698 53.8432 108.473 53.5278 108.156 53.295C107.843 53.0589 107.453 52.9408 106.987 52.9408C106.512 52.9408 106.061 53.074 105.636 53.3406C105.215 53.6071 104.857 53.9545 104.563 54.383C104.273 54.8081 104.086 55.2618 104.002 55.7442L103.901 56.3414C103.793 56.9992 103.806 57.5508 103.941 57.9961C104.076 58.438 104.321 58.772 104.675 58.998C105.029 59.2241 105.483 59.3371 106.036 59.3371C106.407 59.3371 106.743 59.2797 107.043 59.165C107.343 59.0503 107.605 58.8968 107.827 58.7045C108.05 58.5089 108.229 58.2947 108.364 58.0619L109.168 58.3402C108.996 58.6674 108.753 58.9694 108.44 59.246C108.129 59.5226 107.76 59.7453 107.332 59.914C106.906 60.0793 106.432 60.1619 105.91 60.1619ZM115.262 60L116.983 49.6364H120.328C121.063 49.6364 121.655 49.7764 122.104 50.0564C122.553 50.3364 122.861 50.7176 123.03 51.2C123.202 51.6824 123.238 52.2273 123.136 52.8345C123.038 53.435 122.823 53.9782 122.489 54.464C122.158 54.9464 121.721 55.3293 121.178 55.6127C120.638 55.896 120.004 56.0377 119.275 56.0377H116.644L116.786 55.1876H119.392C119.935 55.1876 120.402 55.0864 120.793 54.884C121.188 54.6782 121.504 54.3982 121.74 54.0439C121.976 53.6863 122.131 53.2832 122.205 52.8345C122.279 52.3791 122.256 51.9743 122.134 51.62C122.016 51.2658 121.794 50.9892 121.466 50.7901C121.143 50.5877 120.707 50.4865 120.161 50.4865H117.788L116.209 60H115.262ZM127.02 60.1619C126.295 60.1619 125.696 59.9933 125.224 59.6559C124.751 59.3152 124.421 58.8445 124.232 58.2441C124.043 57.6402 124.014 56.9452 124.146 56.1592C124.277 55.3765 124.537 54.6816 124.925 54.0743C125.313 53.4637 125.792 52.9863 126.362 52.6422C126.932 52.2947 127.551 52.121 128.219 52.121C128.641 52.121 129.036 52.1986 129.404 52.3538C129.771 52.5056 130.083 52.7401 130.34 53.0572C130.6 53.3709 130.78 53.7673 130.881 54.2464C130.982 54.722 130.979 55.2854 130.871 55.9365L130.8 56.3818H124.728L124.854 55.5874H130.011C130.095 55.0881 130.072 54.6394 129.94 54.2413C129.808 53.8432 129.584 53.5278 129.267 53.295C128.953 53.0589 128.564 52.9408 128.098 52.9408C127.622 52.9408 127.172 53.074 126.747 53.3406C126.325 53.6071 125.968 53.9545 125.674 54.383C125.384 54.8081 125.197 55.2618 125.112 55.7442L125.011 56.3414C124.903 56.9992 124.917 57.5508 125.052 57.9961C125.187 58.438 125.431 58.772 125.785 58.998C126.14 59.2241 126.593 59.3371 127.147 59.3371C127.518 59.3371 127.853 59.2797 128.154 59.165C128.454 59.0503 128.715 58.8968 128.938 58.7045C129.161 58.5089 129.339 58.2947 129.474 58.0619L130.279 58.3402C130.107 58.6674 129.864 58.9694 129.55 59.246C129.24 59.5226 128.871 59.7453 128.442 59.914C128.017 60.0793 127.543 60.1619 127.02 60.1619ZM135.234 60.1619C134.553 60.1619 133.979 59.9899 133.514 59.6458C133.048 59.2983 132.719 58.8176 132.527 58.2036C132.335 57.5896 132.303 56.8811 132.431 56.0782C132.559 55.2955 132.814 54.6073 133.195 54.0136C133.58 53.4165 134.052 52.9526 134.612 52.622C135.172 52.288 135.781 52.121 136.439 52.121C137.124 52.121 137.697 52.2947 138.159 52.6422C138.625 52.9897 138.954 53.4704 139.146 54.0844C139.342 54.6984 139.375 55.4086 139.247 56.2148C139.119 56.9941 138.863 57.6807 138.478 58.2744C138.094 58.8648 137.621 59.327 137.061 59.661C136.505 59.9949 135.896 60.1619 135.234 60.1619ZM135.245 59.3371C135.798 59.3371 136.29 59.1903 136.722 58.8968C137.157 58.6 137.517 58.2053 137.8 57.7127C138.083 57.2168 138.274 56.672 138.372 56.0782C138.463 55.5115 138.453 54.9902 138.341 54.5146C138.23 54.0389 138.016 53.6577 137.699 53.3709C137.382 53.0842 136.96 52.9408 136.434 52.9408C135.884 52.9408 135.391 53.0909 134.956 53.3912C134.521 53.688 134.162 54.0861 133.878 54.5854C133.595 55.0813 133.406 55.6245 133.311 56.2148C133.217 56.785 133.224 57.3062 133.332 57.7785C133.443 58.2508 133.657 58.6286 133.974 58.912C134.295 59.1954 134.718 59.3371 135.245 59.3371ZM140.111 62.9148L141.903 52.2273H142.778L142.535 53.71H142.642C142.783 53.4772 142.967 53.2377 143.193 52.9914C143.422 52.7451 143.708 52.5393 144.048 52.374C144.392 52.2053 144.804 52.121 145.283 52.121C145.924 52.121 146.455 52.288 146.877 52.622C147.302 52.956 147.599 53.4249 147.768 54.0288C147.94 54.6326 147.958 55.3343 147.823 56.1339C147.692 56.9368 147.44 57.6402 147.069 58.2441C146.698 58.8479 146.244 59.3185 145.708 59.6559C145.175 59.9933 144.591 60.1619 143.957 60.1619C143.488 60.1619 143.109 60.0776 142.819 59.9089C142.532 59.7402 142.313 59.5328 142.161 59.2865C142.009 59.0368 141.899 58.7939 141.832 58.5578H141.751L141.022 62.9148H140.111ZM142.146 56.1187C142.044 56.7462 142.044 57.3028 142.146 57.7886C142.247 58.271 142.451 58.6506 142.758 58.9272C143.065 59.2005 143.47 59.3371 143.972 59.3371C144.489 59.3371 144.949 59.1954 145.354 58.912C145.759 58.6253 146.096 58.239 146.366 57.7532C146.636 57.2674 146.821 56.7226 146.923 56.1187C147.017 55.5216 147.014 54.9835 146.912 54.5044C146.811 54.0254 146.609 53.6459 146.305 53.3659C146.002 53.0825 145.588 52.9408 145.065 52.9408C144.559 52.9408 144.104 53.0774 143.699 53.3507C143.298 53.6206 142.964 53.995 142.697 54.4741C142.431 54.9498 142.247 55.498 142.146 56.1187ZM151.777 49.6364L150.056 60H149.155L150.876 49.6364H151.777ZM155.562 60.1619C154.837 60.1619 154.238 59.9933 153.765 59.6559C153.293 59.3152 152.963 58.8445 152.774 58.2441C152.585 57.6402 152.556 56.9452 152.688 56.1592C152.819 55.3765 153.079 54.6816 153.467 54.0743C153.855 53.4637 154.334 52.9863 154.904 52.6422C155.474 52.2947 156.093 52.121 156.761 52.121C157.183 52.121 157.578 52.1986 157.945 52.3538C158.313 52.5056 158.625 52.7401 158.882 53.0572C159.141 53.3709 159.322 53.7673 159.423 54.2464C159.524 54.722 159.521 55.2854 159.413 55.9365L159.342 56.3818H153.27L153.396 55.5874H158.553C158.637 55.0881 158.613 54.6394 158.482 54.2413C158.35 53.8432 158.126 53.5278 157.809 53.295C157.495 53.0589 157.105 52.9408 156.64 52.9408C156.164 52.9408 155.714 53.074 155.289 53.3406C154.867 53.6071 154.509 53.9545 154.216 54.383C153.926 54.8081 153.738 55.2618 153.654 55.7442L153.553 56.3414C153.445 56.9992 153.458 57.5508 153.593 57.9961C153.728 58.438 153.973 58.772 154.327 58.998C154.681 59.2241 155.135 59.3371 155.688 59.3371C156.06 59.3371 156.395 59.2797 156.695 59.165C156.996 59.0503 157.257 58.8968 157.48 58.7045C157.702 58.5089 157.881 58.2947 158.016 58.0619L158.821 58.3402C158.649 58.6674 158.406 58.9694 158.092 59.246C157.782 59.5226 157.412 59.7453 156.984 59.914C156.559 60.0793 156.085 60.1619 155.562 60.1619Z" fill="white"/>
<defs>
<radialGradient id="paint0_radial_21_1585" cx="0" cy="0" r="1" gradientUnits="userSpaceOnUse" gradientTransform="translate(22.9998 17) rotate(-90) scale(31.5 34.5288)">
<stop stop-color="#EFEFEF"/>
<stop offset="1" stop-color="#FFC947"/>
</radialGradient>
</defs>
</svg>
