<svg width="33" height="33" viewBox="0 0 33 33" fill="none" xmlns="http://www.w3.org/2000/svg">
<path d="M28.526 31.8508V5.18416C28.526 3.34321 27.0337 1.85083 25.1927 1.85083H8.52604C6.68509 1.85083 5.19271 3.34321 5.19271 5.18416V31.8508M28.526 31.8508L31.8594 31.8508M28.526 31.8508H20.1927M5.19271 31.8508L1.85938 31.8508M5.19271 31.8508H13.526M11.8594 8.51746H13.526M11.8594 15.1841H13.526M20.1927 8.51746H21.8594M20.1927 15.1841H21.8594M13.526 31.8508V23.5175C13.526 22.597 14.2722 21.8508 15.1927 21.8508H18.526C19.4465 21.8508 20.1927 22.597 20.1927 23.5175V31.8508M13.526 31.8508H20.1927" stroke="#185ADB" stroke-width="2" stroke-linecap="round" stroke-linejoin="round"/>
</svg>
