<svg width="544" height="464" viewBox="0 0 544 464" fill="none" xmlns="http://www.w3.org/2000/svg">
<path d="M263.145 162.042L294.017 215.514H232.273L263.145 162.042Z" stroke="#D5D2D2" stroke-width="0.838763"/>
<path d="M337.214 301.906L306.343 248.435L368.086 248.435L337.214 301.906Z" stroke="#D5D2D2" stroke-width="0.838763"/>
<path d="M275.146 301.906L244.274 248.435L306.018 248.435L275.146 301.906Z" stroke="#D5D2D2" stroke-width="0.838763"/>
<path d="M244.111 355.587L213.239 302.116L274.982 302.116L244.111 355.587Z" stroke="#D5D2D2" stroke-width="0.838763"/>
<path d="M306.179 355.587L275.308 302.116L337.051 302.116L306.179 355.587Z" stroke="#D5D2D2" stroke-width="0.838763"/>
<path d="M275.146 409.268L244.274 355.797L306.018 355.797L275.146 409.268Z" stroke="#D5D2D2" stroke-width="0.838763"/>
<path d="M399.283 409.268L368.411 355.797L430.154 355.797L399.283 409.268Z" stroke="#D5D2D2" stroke-width="0.838763"/>
<path d="M337.214 409.268L306.343 355.797L368.086 355.797L337.214 409.268Z" stroke="#D5D2D2" stroke-width="0.838763"/>
<path d="M306.179 462.949L275.308 409.478L337.051 409.478L306.179 462.949Z" stroke="#D5D2D2" stroke-width="0.838763"/>
<path d="M88.939 359.781L58.0674 306.31L119.811 306.31L88.939 359.781Z" stroke="#D5D2D2" stroke-width="0.838763"/>
<path d="M26.8716 252.629L57.7431 306.1L-4.00001 306.1L26.8716 252.629Z" stroke="#D5D2D2" stroke-width="0.838763"/>
<path d="M151.008 252.629L181.88 306.1L120.137 306.1L151.008 252.629Z" stroke="#D5D2D2" stroke-width="0.838763"/>
<path d="M88.9399 252.629L119.812 306.1L58.0684 306.1L88.9399 252.629Z" stroke="#D5D2D2" stroke-width="0.838763"/>
<path d="M57.9067 198.948L88.7783 252.419L27.0351 252.419L57.9067 198.948Z" stroke="#D5D2D2" stroke-width="0.838763"/>
<path d="M26.8706 359.781L-4.00097 306.31L57.7422 306.31L26.8706 359.781Z" stroke="#D5D2D2" stroke-width="0.838763"/>
<path d="M213.078 301.906L182.206 248.435L243.949 248.435L213.078 301.906Z" stroke="#D5D2D2" stroke-width="0.838763"/>
<path d="M368.249 248.435L399.12 301.906L337.377 301.906L368.249 248.435Z" stroke="#D5D2D2" stroke-width="0.838763"/>
<path d="M399.282 302.116L430.153 355.587L368.41 355.587L399.282 302.116Z" stroke="#D5D2D2" stroke-width="0.838763"/>
<path d="M461.35 302.116L492.222 355.587L430.479 355.587L461.35 302.116Z" stroke="#D5D2D2" stroke-width="0.838763"/>
<path d="M325.471 162.042L356.343 215.514H294.6L325.471 162.042Z" stroke="#D5D2D2" stroke-width="0.838763"/>
<path d="M201.334 54.6809L232.206 108.152H170.463L201.334 54.6809Z" stroke="#D5D2D2" stroke-width="0.838763"/>
<path d="M139.266 54.6809L170.138 108.152H108.395L139.266 54.6809Z" stroke="#D5D2D2" stroke-width="0.838763"/>
<path d="M387.54 162.042L418.411 215.514H356.668L387.54 162.042Z" stroke="#D5D2D2" stroke-width="0.838763"/>
<path d="M449.608 54.6809L480.479 108.152H418.736L449.608 54.6809Z" stroke="#D5D2D2" stroke-width="0.838763"/>
<path d="M480.643 1L511.515 54.4711H449.771L480.643 1Z" stroke="#D5D2D2" stroke-width="0.838763"/>
<path d="M511.676 54.6809L542.548 108.152H480.805L511.676 54.6809Z" stroke="#D5D2D2" stroke-width="0.838763"/>
<path d="M449.608 162.042L480.479 215.514H418.736L449.608 162.042Z" stroke="#D5D2D2" stroke-width="0.838763"/>
<path d="M511.676 162.042L542.548 215.514H480.805L511.676 162.042Z" stroke="#D5D2D2" stroke-width="0.838763"/>
<path d="M449.609 269.195L418.737 215.723L480.48 215.723L449.609 269.195Z" stroke="#D5D2D2" stroke-width="0.838763"/>
<path d="M294.436 108.362L325.308 161.833H263.564L294.436 108.362Z" stroke="#D5D2D2" stroke-width="0.838763"/>
<path d="M480.643 108.362L511.515 161.833H449.771L480.643 108.362Z" stroke="#D5D2D2" stroke-width="0.838763"/>
<path d="M430.317 355.797L461.188 409.268H399.445L430.317 355.797Z" stroke="#D5D2D2" stroke-width="0.838763"/>
<path d="M170.299 108.362L201.171 161.833H139.428L170.299 108.362Z" stroke="#D5D2D2" stroke-width="0.838763"/>
<path d="M232.369 215.514L201.497 162.043L263.24 162.043L232.369 215.514Z" stroke="#D5D2D2" stroke-width="0.838763"/>
<path d="M170.3 215.514L139.429 162.043L201.172 162.043L170.3 215.514Z" stroke="#D5D2D2" stroke-width="0.838763"/>
</svg>
