<svg width="548" height="360" viewBox="0 0 548 360" fill="none" xmlns="http://www.w3.org/2000/svg">
<path d="M267.211 162.243L298.083 215.714H236.34L267.211 162.243Z" stroke="#185ADB" stroke-opacity="0.5" stroke-width="0.838763"/>
<path d="M341.279 302.107L310.407 248.636L372.15 248.636L341.279 302.107Z" stroke="#185ADB" stroke-opacity="0.5" stroke-width="0.838763"/>
<path d="M279.21 302.107L248.339 248.636L310.082 248.636L279.21 302.107Z" stroke="#185ADB" stroke-opacity="0.5" stroke-width="0.838763"/>
<path d="M248.175 355.787L217.304 302.316L279.047 302.316L248.175 355.787Z" stroke="#185ADB" stroke-opacity="0.5" stroke-width="0.838763"/>
<path d="M310.244 355.787L279.372 302.316L341.115 302.316L310.244 355.787Z" stroke="#185ADB" stroke-opacity="0.5" stroke-width="0.838763"/>
<path d="M93.0054 359.981L62.1338 306.51L123.877 306.51L93.0054 359.981Z" stroke="#185ADB" stroke-opacity="0.5" stroke-width="0.838763"/>
<path d="M30.936 252.829L61.8076 306.3L0.0644438 306.3L30.936 252.829Z" stroke="#185ADB" stroke-opacity="0.5" stroke-width="0.838763"/>
<path d="M155.073 252.829L185.944 306.3L124.201 306.3L155.073 252.829Z" stroke="#185ADB" stroke-opacity="0.5" stroke-width="0.838763"/>
<path d="M93.0044 252.829L123.876 306.3L62.1328 306.3L93.0044 252.829Z" stroke="#185ADB" stroke-opacity="0.5" stroke-width="0.838763"/>
<path d="M61.9712 199.149L92.8428 252.62L31.0996 252.62L61.9712 199.149Z" stroke="#185ADB" stroke-opacity="0.5" stroke-width="0.838763"/>
<path d="M30.9351 359.981L0.0634821 306.51L61.8066 306.51L30.9351 359.981Z" stroke="#185ADB" stroke-opacity="0.5" stroke-width="0.838763"/>
<path d="M217.142 302.107L186.271 248.636L248.014 248.636L217.142 302.107Z" stroke="#185ADB" stroke-opacity="0.5" stroke-width="0.838763"/>
<path d="M372.313 248.635L403.185 302.107L341.441 302.107L372.313 248.635Z" stroke="#185ADB" stroke-opacity="0.5" stroke-width="0.838763"/>
<path d="M465.415 302.316L496.286 355.787L434.543 355.787L465.415 302.316Z" stroke="#185ADB" stroke-opacity="0.5" stroke-width="0.838763"/>
<path d="M329.536 162.243L360.407 215.714H298.664L329.536 162.243Z" stroke="#185ADB" stroke-opacity="0.5" stroke-width="0.838763"/>
<path d="M205.399 54.8812L236.27 108.352H174.527L205.399 54.8812Z" stroke="#185ADB" stroke-opacity="0.5" stroke-width="0.838763"/>
<path d="M143.331 54.8812L174.202 108.352H112.459L143.331 54.8812Z" stroke="#185ADB" stroke-opacity="0.5" stroke-width="0.838763"/>
<path d="M391.604 162.243L422.476 215.714H360.732L391.604 162.243Z" stroke="#185ADB" stroke-opacity="0.5" stroke-width="0.838763"/>
<path d="M453.672 54.8812L484.544 108.352H422.801L453.672 54.8812Z" stroke="#185ADB" stroke-opacity="0.5" stroke-width="0.838763"/>
<path d="M484.708 1.20044L515.579 54.6716H453.836L484.708 1.20044Z" stroke="#185ADB" stroke-opacity="0.5" stroke-width="0.838763"/>
<path d="M515.741 54.8812L546.612 108.352H484.869L515.741 54.8812Z" stroke="#185ADB" stroke-opacity="0.5" stroke-width="0.838763"/>
<path d="M453.672 162.243L484.544 215.714H422.801L453.672 162.243Z" stroke="#185ADB" stroke-opacity="0.5" stroke-width="0.838763"/>
<path d="M515.741 162.243L546.612 215.714H484.869L515.741 162.243Z" stroke="#185ADB" stroke-opacity="0.5" stroke-width="0.838763"/>
<path d="M453.673 269.395L422.802 215.924L484.545 215.924L453.673 269.395Z" stroke="#185ADB" stroke-opacity="0.5" stroke-width="0.838763"/>
<path d="M298.5 108.562L329.372 162.033H267.629L298.5 108.562Z" stroke="#185ADB" stroke-opacity="0.5" stroke-width="0.838763"/>
<path d="M484.708 108.562L515.579 162.033H453.836L484.708 108.562Z" stroke="#185ADB" stroke-opacity="0.5" stroke-width="0.838763"/>
<path d="M434.381 355.997L465.253 409.468H403.51L434.381 355.997Z" stroke="#185ADB" stroke-opacity="0.5" stroke-width="0.838763"/>
<path d="M174.364 108.562L205.235 162.033H143.492L174.364 108.562Z" stroke="#185ADB" stroke-opacity="0.5" stroke-width="0.838763"/>
<path d="M236.433 215.714L205.562 162.243L267.305 162.243L236.433 215.714Z" stroke="#185ADB" stroke-opacity="0.5" stroke-width="0.838763"/>
<path d="M174.365 215.714L143.493 162.243L205.236 162.243L174.365 215.714Z" stroke="#185ADB" stroke-opacity="0.5" stroke-width="0.838763"/>
</svg>
